<svg width="174" height="80.7" viewBox="0 0 174 80.7" xmlns="http://www.w3.org/2000/svg"><g id="svgGroup" stroke-linecap="round" fill-rule="evenodd" font-size="9pt" stroke="#ffffff" stroke-width="0.25mm" fill="#ffffff" style="stroke:#ffffff;stroke-width:0.25mm;fill:#ffffff"><path d="M 129.3 55.8 L 130.5 56.7 Q 128.6 61.8 125.3 65.85 A 33.02 33.02 0 0 1 121.722 69.624 A 25.676 25.676 0 0 1 118.25 72.25 A 17.904 17.904 0 0 1 115.487 73.682 Q 113.225 74.6 111.1 74.6 A 8.692 8.692 0 0 1 109.197 74.406 Q 108.026 74.143 107.182 73.523 A 4.574 4.574 0 0 1 105.95 72.15 A 10.455 10.455 0 0 1 104.749 69.227 A 9.21 9.21 0 0 1 104.5 67.1 A 15.445 15.445 0 0 1 104.549 65.93 Q 104.649 64.618 104.955 62.853 A 52.643 52.643 0 0 1 105 62.6 Q 105.5 59.8 106.4 56.4 A 77.331 77.331 0 0 1 101.811 63.191 A 66.067 66.067 0 0 1 99.6 65.95 Q 96.568 69.53 93.642 71.797 A 26.353 26.353 0 0 1 92.55 72.6 A 16.321 16.321 0 0 1 90.219 73.966 Q 88.854 74.612 87.547 74.855 A 8.474 8.474 0 0 1 86 75 A 7.361 7.361 0 0 1 83.639 74.598 A 9.263 9.263 0 0 1 82.55 74.15 A 6.565 6.565 0 0 1 80.283 72.31 A 8.468 8.468 0 0 1 79.65 71.4 Q 78.626 69.708 78.514 67.222 A 13.825 13.825 0 0 1 78.5 66.6 A 16.265 16.265 0 0 1 78.829 63.445 Q 79.126 61.943 79.692 60.306 A 30.352 30.352 0 0 1 80.1 59.2 A 41.09 41.09 0 0 1 83.1 53.11 A 48.097 48.097 0 0 1 84.4 51.05 Q 87.1 47 90.6 43.55 A 35.024 35.024 0 0 1 94.862 39.947 A 28.885 28.885 0 0 1 97.9 38.05 A 17.989 17.989 0 0 1 101.558 36.545 A 14.115 14.115 0 0 1 105.4 36 Q 107.5 36 108.65 36.75 A 2.452 2.452 0 0 1 109.758 38.519 A 3.84 3.84 0 0 1 109.8 39.1 A 5.414 5.414 0 0 1 109.791 39.429 Q 109.781 39.58 109.763 39.713 A 2.995 2.995 0 0 1 109.75 39.8 Q 109.7 40.1 109.6 40.5 A 2.757 2.757 0 0 0 108.281 39.401 A 3.453 3.453 0 0 0 108.15 39.35 Q 107.376 39.065 106.303 39.012 A 10.238 10.238 0 0 0 105.8 39 Q 102.6 39 99.55 40.95 A 22.456 22.456 0 0 0 95.424 44.373 A 26.99 26.99 0 0 0 93.95 46.05 Q 91.4 49.2 89.5 52.8 A 45.934 45.934 0 0 0 87.631 56.771 A 36.774 36.774 0 0 0 86.55 59.75 A 29.379 29.379 0 0 0 85.952 61.929 Q 85.5 63.891 85.5 65.4 A 7.868 7.868 0 0 0 85.618 66.806 Q 85.844 68.047 86.5 68.9 Q 87.496 70.194 89.086 70.2 A 3.928 3.928 0 0 0 89.1 70.2 A 5.577 5.577 0 0 0 90.996 69.834 Q 93.063 69.084 95.65 66.8 A 32.998 32.998 0 0 0 98.681 63.717 Q 101.063 60.978 103.5 57.2 A 69.921 69.921 0 0 0 107.636 49.791 A 92.7 92.7 0 0 0 110.7 42.7 Q 112.9 36.9 115.25 30.9 A 362.956 362.956 0 0 1 119.401 20.745 A 329.715 329.715 0 0 1 120 19.35 Q 122.4 13.8 124.65 9.45 Q 126.269 6.319 127.785 4.121 A 26.687 26.687 0 0 1 128.95 2.55 A 13.346 13.346 0 0 1 129.886 1.495 Q 131.375 0 132.6 0 A 1.801 1.801 0 0 1 133.847 0.498 A 2.481 2.481 0 0 1 134 0.65 A 2.24 2.24 0 0 1 134.578 1.934 A 3.03 3.03 0 0 1 134.6 2.3 Q 134.6 3.784 133.181 7.204 A 51.833 51.833 0 0 1 132.95 7.75 Q 131.816 10.397 130.209 13.753 A 267.949 267.949 0 0 1 128.65 16.95 Q 126 22.3 123.1 28.6 Q 120.2 34.9 117.55 41.4 A 117.204 117.204 0 0 0 114.628 49.349 A 98.956 98.956 0 0 0 113.25 53.95 A 51.358 51.358 0 0 0 112.122 59.043 Q 111.665 61.794 111.608 64.292 A 30.986 30.986 0 0 0 111.6 65 A 41.959 41.959 0 0 0 111.624 66.464 Q 111.67 67.788 111.807 68.689 A 8.73 8.73 0 0 0 111.9 69.2 Q 112.2 70.6 113.9 70.6 Q 115.375 70.6 117.194 69.713 A 15.765 15.765 0 0 0 118.8 68.8 Q 121.321 67.179 123.842 64.343 A 37.102 37.102 0 0 0 124.4 63.7 A 30.908 30.908 0 0 0 127.553 59.195 A 39.266 39.266 0 0 0 129.3 55.8 Z M 4.4 43.7 L 0.9 43.7 Q 2 40.8 4.75 39.65 Q 7.323 38.574 10.815 38.505 A 24.452 24.452 0 0 1 11.3 38.5 Q 13 38.5 14.8 38.7 A 80.858 80.858 0 0 1 18.263 39.163 A 88.429 88.429 0 0 1 18.5 39.2 Q 23.6 31.5 28.95 24.25 Q 34.3 17 38.95 11.35 Q 43.263 6.11 46.242 3.235 A 40.967 40.967 0 0 1 46.7 2.8 A 19.363 19.363 0 0 1 48.004 1.641 Q 49.344 0.564 50.431 0.194 A 3.324 3.324 0 0 1 51.5 0 A 3.41 3.41 0 0 1 52.473 0.151 Q 53.17 0.359 53.95 0.85 A 13.143 13.143 0 0 1 55.16 1.718 Q 55.757 2.197 56.381 2.791 A 24.055 24.055 0 0 1 56.8 3.2 A 3.279 3.279 0 0 0 56.301 3.721 Q 55.437 4.809 54.25 7.45 Q 52.7 10.9 50.95 16.1 Q 49.2 21.3 47.5 27.5 Q 45.8 33.7 44.35 40.15 Q 42.9 46.6 42.05 52.4 Q 41.366 57.067 41.232 60.828 A 49.95 49.95 0 0 0 41.2 62.6 A 27.446 27.446 0 0 0 41.281 64.783 Q 41.45 66.895 41.973 68.301 A 7.484 7.484 0 0 0 42.05 68.5 A 4.229 4.229 0 0 0 42.619 69.515 A 2.737 2.737 0 0 0 44.9 70.6 A 4.71 4.71 0 0 0 46.815 70.155 Q 48.318 69.486 50.018 67.813 A 22.142 22.142 0 0 0 50.8 67 A 28.784 28.784 0 0 0 52.921 64.359 Q 54.982 61.494 57.252 57.232 A 105.733 105.733 0 0 0 58 55.8 L 59 56.8 A 48.226 48.226 0 0 1 55.942 63.455 Q 53.957 66.997 51.508 69.725 A 30.149 30.149 0 0 1 51.35 69.9 Q 46.7 75 41.7 75 A 7.154 7.154 0 0 1 39.095 74.549 Q 37.285 73.847 36.148 72.052 A 8.448 8.448 0 0 1 35.75 71.35 A 15.009 15.009 0 0 1 34.587 68.125 Q 34.201 66.545 34.031 64.678 A 34.191 34.191 0 0 1 33.9 61.6 Q 33.9 58.4 34.35 54.6 A 103.566 103.566 0 0 1 35.222 48.731 A 118.096 118.096 0 0 1 35.6 46.7 Q 31.2 46 27.55 45.55 Q 23.9 45.1 20.8 44.7 Q 16.1 53.4 11.65 62.6 A 424.124 424.124 0 0 0 3.519 80.422 A 390.331 390.331 0 0 0 3.4 80.7 Q 1.284 79.449 0.648 78.06 A 3.265 3.265 0 0 1 0.6 77.95 A 10.467 10.467 0 0 1 0.271 77.047 Q 0.135 76.609 0.068 76.223 A 4.204 4.204 0 0 1 0 75.5 A 10.62 10.62 0 0 1 0.195 73.581 Q 0.633 71.219 2.05 67.9 Q 4.1 63.1 7.55 56.95 Q 11 50.8 15.2 44.2 Q 12.656 43.994 10.632 43.882 A 104.139 104.139 0 0 0 8.9 43.8 A 158.53 158.53 0 0 0 7.048 43.739 Q 5.588 43.7 4.4 43.7 Z M 173 55.8 L 174 56.8 A 37.287 37.287 0 0 1 170.545 63.611 A 32.548 32.548 0 0 1 168.6 66.3 Q 165.3 70.4 161.55 72.7 A 17.14 17.14 0 0 1 158.413 74.231 A 12.358 12.358 0 0 1 154.2 75 A 9.836 9.836 0 0 1 152.126 74.796 Q 150.848 74.52 149.9 73.872 A 5.25 5.25 0 0 1 148.75 72.8 A 8.161 8.161 0 0 1 147.397 70.387 A 7.247 7.247 0 0 1 147 68 A 8.603 8.603 0 0 1 147.023 67.384 Q 147.048 67.037 147.1 66.65 Q 147.2 65.9 147.3 65.1 Q 144.481 68.902 141.984 71.458 A 30.925 30.925 0 0 1 139.45 73.8 A 14.686 14.686 0 0 1 136.766 75.567 Q 134.513 76.7 132.2 76.7 Q 129.1 76.7 126.95 74.65 A 6.384 6.384 0 0 1 125.321 72.014 Q 124.979 70.999 124.862 69.76 A 14.414 14.414 0 0 1 124.8 68.4 A 18.649 18.649 0 0 1 125.252 64.42 Q 125.644 62.624 126.377 60.711 A 30.579 30.579 0 0 1 126.4 60.65 A 37.798 37.798 0 0 1 129.455 54.513 A 44.377 44.377 0 0 1 130.8 52.45 Q 133.6 48.4 137.15 45.05 A 33.55 33.55 0 0 1 142.22 41.082 A 29.188 29.188 0 0 1 144.65 39.7 A 19.076 19.076 0 0 1 148.833 38.139 A 15.733 15.733 0 0 1 152.5 37.7 A 12.227 12.227 0 0 1 155.546 38.061 A 9.203 9.203 0 0 1 159 39.75 A 6.51 6.51 0 0 1 161.569 44.472 A 8.351 8.351 0 0 1 161.6 45.2 A 7.213 7.213 0 0 1 161.51 46.383 Q 161.252 47.932 160.25 48.6 Q 159.096 49.369 157.32 49.481 A 9.891 9.891 0 0 1 156.7 49.5 A 18.324 18.324 0 0 0 156.909 48.553 A 23.066 23.066 0 0 0 157.05 47.75 Q 157.2 46.8 157.2 46 A 8.048 8.048 0 0 0 156.966 44.018 A 6.315 6.315 0 0 0 156.1 42.05 A 3.459 3.459 0 0 0 154.23 40.672 Q 153.397 40.4 152.3 40.4 A 8.865 8.865 0 0 0 149.029 41.052 Q 147.899 41.498 146.753 42.249 A 15.426 15.426 0 0 0 146.6 42.35 A 23.691 23.691 0 0 0 143.444 44.913 A 31.64 31.64 0 0 0 141 47.55 Q 138.3 50.8 136.2 54.6 A 45.316 45.316 0 0 0 133.784 59.661 A 38.5 38.5 0 0 0 132.9 62.1 A 28.274 28.274 0 0 0 132.123 64.974 Q 131.819 66.415 131.733 67.709 A 15.035 15.035 0 0 0 131.7 68.7 Q 131.7 72.493 134.254 72.597 A 3.589 3.589 0 0 0 134.4 72.6 Q 136.7 72.6 139.4 70.45 A 33.59 33.59 0 0 0 141.964 68.171 Q 143.24 66.921 144.549 65.417 A 56.926 56.926 0 0 0 144.95 64.95 Q 147.8 61.6 150.4 58 Q 153 54.4 155 51.4 A 9.739 9.739 0 0 1 155.129 51.211 Q 155.366 50.873 155.464 50.813 A 0.072 0.072 0 0 1 155.5 50.8 A 6.992 6.992 0 0 1 155.909 50.882 Q 156.364 50.986 156.964 51.173 A 22.651 22.651 0 0 1 157.05 51.2 A 6.466 6.466 0 0 1 158.033 51.598 A 5.186 5.186 0 0 1 158.7 52 A 1.808 1.808 0 0 1 159.127 52.417 A 1.48 1.48 0 0 1 159.4 53.3 A 2.51 2.51 0 0 1 159.321 53.892 Q 159.176 54.485 158.766 55.269 A 12.368 12.368 0 0 1 158.5 55.75 A 145.901 145.901 0 0 0 157.612 57.302 Q 157.084 58.238 156.5 59.3 Q 155.4 61.3 154.5 63.35 Q 153.632 65.328 153.601 67.073 A 7.254 7.254 0 0 0 153.6 67.2 A 5.859 5.859 0 0 0 154.128 69.604 A 7.159 7.159 0 0 0 154.4 70.15 A 2.722 2.722 0 0 0 155.37 71.191 Q 155.886 71.504 156.567 71.578 A 4.039 4.039 0 0 0 157 71.6 A 5.135 5.135 0 0 0 158.753 71.252 Q 161.006 70.427 164.1 67.65 A 31.332 31.332 0 0 0 167.345 64.217 Q 168.88 62.348 170.428 60.006 A 74.771 74.771 0 0 0 173 55.8 Z M 82 55.8 L 82.9 56.8 Q 80.273 64.592 75.552 69.1 A 21.944 21.944 0 0 1 74.55 70 A 21.835 21.835 0 0 1 70.224 72.892 A 15.582 15.582 0 0 1 63.2 74.6 Q 60.054 74.6 58.21 73.006 A 5.932 5.932 0 0 1 57.4 72.15 A 9.016 9.016 0 0 1 55.581 67.604 A 11.798 11.798 0 0 1 55.5 66.2 Q 55.5 64.655 55.884 62.568 A 39.423 39.423 0 0 1 56.35 60.4 A 64.863 64.863 0 0 1 57.627 55.888 A 78.669 78.669 0 0 1 58.6 53.05 A 53.414 53.414 0 0 1 61.621 46.227 A 49.306 49.306 0 0 1 61.85 45.8 A 31.029 31.029 0 0 1 63.517 43.064 Q 64.412 41.76 65.36 40.717 A 17.836 17.836 0 0 1 65.8 40.25 Q 67.101 38.918 68.364 38.411 A 4.102 4.102 0 0 1 69.9 38.1 A 2.459 2.459 0 0 1 70.81 38.264 A 2.282 2.282 0 0 1 71.45 38.65 A 1.752 1.752 0 0 1 72.008 39.551 Q 72.1 39.887 72.1 40.3 Q 72.1 41.413 70.767 43.816 A 30.151 30.151 0 0 1 70.55 44.2 Q 69.218 46.52 67.48 49.431 A 527.778 527.778 0 0 1 66.9 50.4 Q 64.8 53.9 63.25 57.75 Q 61.7 61.6 61.7 65.1 A 16.948 16.948 0 0 0 61.766 66.656 Q 61.981 68.981 62.9 69.9 A 3.696 3.696 0 0 0 64.311 70.761 Q 64.896 70.968 65.618 71.048 A 8.857 8.857 0 0 0 66.6 71.1 A 7.976 7.976 0 0 0 69.647 70.455 Q 70.821 69.972 72.042 69.126 A 19.563 19.563 0 0 0 73.85 67.7 A 20.815 20.815 0 0 0 76.269 65.116 Q 79.027 61.677 82 55.8 Z M 36.3 43.2 Q 37.8 36.6 39.8 29.85 Q 41.8 23.1 44.05 17 A 254.411 254.411 0 0 1 45.971 11.95 Q 46.874 9.653 47.733 7.623 A 145.061 145.061 0 0 1 48.3 6.3 A 17.626 17.626 0 0 0 46.27 7.776 Q 43.934 9.716 41.15 13.05 Q 37.67 17.218 33.857 22.937 A 170.521 170.521 0 0 0 32.6 24.85 Q 28.1 31.8 23.4 40.1 Q 26.8 40.8 30.15 41.65 Q 33.5 42.5 36.3 43.2 Z M 73.391 28.507 A 5.454 5.454 0 0 0 75.2 28.8 A 6.275 6.275 0 0 0 77.738 28.269 A 7.696 7.696 0 0 0 79.65 27.05 Q 80.643 26.202 81.155 25.319 A 3.784 3.784 0 0 0 81.7 23.4 A 5.35 5.35 0 0 0 81.662 22.741 Q 81.514 21.556 80.8 21 A 2.889 2.889 0 0 0 80.413 20.746 Q 79.598 20.3 78.4 20.3 Q 76 20.3 73.55 21.85 Q 72.555 22.48 71.964 23.2 A 3.549 3.549 0 0 0 71.1 25.5 A 4.027 4.027 0 0 0 71.14 26.082 A 2.614 2.614 0 0 0 72.35 28 A 4.951 4.951 0 0 0 73.391 28.507 Z" vector-effect="non-scaling-stroke"/></g></svg>