<svg width="63.901" height="80.601" viewBox="0 0 63.901 80.601" xmlns="http://www.w3.org/2000/svg"><g id="svgGroup" stroke-linecap="round" fill-rule="evenodd" font-size="9pt" stroke="#ffffff" stroke-width="0.25mm" fill="#ffffff" style="stroke:#ffffff;stroke-width:0.25mm;fill:#ffffff"><path d="M 14.268 80.06 A 24.205 24.205 0 0 0 19.501 80.6 Q 25.901 80.6 31.751 77.7 Q 37.601 74.8 42.351 69.85 Q 47.101 64.9 50.151 58.6 Q 53.201 52.3 53.901 45.4 Q 55.101 45.4 56.551 45.35 Q 58.001 45.3 59.701 45.3 A 4.673 4.673 0 0 0 60.601 45.211 A 5.705 5.705 0 0 0 61.751 44.85 A 2.121 2.121 0 0 0 62.315 44.478 Q 62.845 44.007 63.388 43.077 A 13.554 13.554 0 0 0 63.901 42.1 Q 61.901 42 59.451 41.6 Q 57.001 41.2 54.301 40.8 A 35.109 35.109 0 0 0 52.845 40.616 A 40.394 40.394 0 0 0 48.601 40.4 A 24.555 24.555 0 0 0 48.096 40.406 Q 44.219 40.485 41.401 41.8 Q 39.233 42.812 38.527 45.286 A 9.328 9.328 0 0 0 38.201 47.4 Q 41.501 46.7 43.601 46.35 Q 45.701 46 47.451 45.8 Q 49.201 45.6 51.301 45.5 Q 50.601 51.5 48.001 57.15 Q 45.401 62.8 41.351 67.3 A 38.379 38.379 0 0 1 40.454 68.263 A 33.556 33.556 0 0 1 32.351 74.5 A 24.654 24.654 0 0 1 31.73 74.827 A 20.978 20.978 0 0 1 22.101 77.2 Q 17.401 77.2 14.601 74.95 Q 11.801 72.7 10.551 69.35 A 21.493 21.493 0 0 1 10.19 68.305 A 18.541 18.541 0 0 1 9.301 62.7 Q 9.301 57.4 12.051 52 Q 14.801 46.6 19.751 42.6 A 23.614 23.614 0 0 1 23.015 40.384 A 25.304 25.304 0 0 1 31.401 37.5 A 17.017 17.017 0 0 1 30.406 36.558 A 14.213 14.213 0 0 1 27.751 32.8 Q 26.501 30.2 26.051 27.5 A 35.207 35.207 0 0 1 25.776 25.518 A 28.865 28.865 0 0 1 25.601 22.4 Q 25.601 17 27.251 12.35 A 21.226 21.226 0 0 1 28.433 9.62 A 16.595 16.595 0 0 1 32.101 4.85 A 10.884 10.884 0 0 1 35.94 2.621 A 12.796 12.796 0 0 1 40.001 2 A 11.38 11.38 0 0 1 40.848 2.031 Q 41.894 2.109 42.751 2.387 A 5.14 5.14 0 0 1 45.151 3.95 A 6.738 6.738 0 0 1 46.554 6.775 A 9.513 9.513 0 0 1 46.801 9 Q 46.801 12.9 44.451 16.25 A 33.162 33.162 0 0 1 42.351 18.931 A 40.474 40.474 0 0 1 38.601 22.7 Q 39.201 24 40.201 24.95 A 4.948 4.948 0 0 0 40.247 24.994 Q 41.226 25.9 42.301 25.9 A 2.601 2.601 0 0 0 42.65 25.877 Q 44.18 25.67 45.751 23.65 A 13.932 13.932 0 0 0 46.258 22.954 Q 47.001 21.866 47.635 20.52 A 25.218 25.218 0 0 0 48.701 17.85 Q 49.901 14.3 49.901 10.6 A 18.118 18.118 0 0 0 49.865 9.446 Q 49.758 7.78 49.336 6.401 A 8.616 8.616 0 0 0 47.151 2.7 A 8.176 8.176 0 0 0 45.167 1.274 Q 43.824 0.578 42.108 0.262 A 17.209 17.209 0 0 0 39.001 0 A 23.402 23.402 0 0 0 37.476 0.049 A 19.062 19.062 0 0 0 28.351 2.95 Q 23.701 5.9 21.001 10.65 Q 18.301 15.4 18.301 20.7 A 19.262 19.262 0 0 0 18.519 23.588 A 21.717 21.717 0 0 0 20.151 29.1 A 18.578 18.578 0 0 0 21.909 32.229 A 21.198 21.198 0 0 0 25.901 36.5 Q 20.501 37 15.801 39.35 Q 11.101 41.7 7.551 45.35 A 21.855 21.855 0 0 0 7.547 45.354 A 28.296 28.296 0 0 0 2.001 53.4 Q 0.001 57.8 0.001 62.4 Q 0.001 67.3 2.351 71.45 A 17.028 17.028 0 0 0 3.927 73.769 A 17.994 17.994 0 0 0 9.101 78.1 A 18.457 18.457 0 0 0 14.268 80.06 Z" vector-effect="non-scaling-stroke"/></g></svg>