<svg width="378" height="100" viewBox="0 0 378 100" xmlns="http://www.w3.org/2000/svg"><g id="svgGroup" stroke-linecap="round" fill-rule="evenodd" font-size="9pt" stroke="#ffffff" stroke-width="0.25mm" fill="#ffffff" style="stroke:#ffffff;stroke-width:0.25mm;fill:#ffffff"><path d="M 18.6 42.9 L 8.9 74.3 A 8.063 8.063 0 0 1 8.354 75.664 Q 7.96 76.425 7.432 76.959 A 4.156 4.156 0 0 1 6.7 77.55 Q 5.2 78.5 3.45 78.7 Q 1.7 78.9 0 78.9 A 77.762 77.762 0 0 0 1.292 75.95 Q 1.943 74.379 2.607 72.614 A 126.018 126.018 0 0 0 2.65 72.5 Q 3.578 70.025 4.743 66.841 A 1233.463 1233.463 0 0 0 5.85 63.8 Q 7.7 58.7 10.2 51.4 Q 12.7 44.1 16.15 33.95 A 6774.016 6774.016 0 0 1 18.913 25.838 Q 20.138 22.251 21.485 18.316 A 12190.219 12190.219 0 0 1 24.3 10.1 Q 24.53 9.488 24.877 8.494 A 175.578 175.578 0 0 0 25.1 7.85 A 10.142 10.142 0 0 0 25.442 6.629 Q 25.6 5.875 25.6 5.2 A 3.934 3.934 0 0 0 25.541 4.497 Q 25.468 4.095 25.304 3.774 A 2.081 2.081 0 0 0 25.1 3.45 Q 24.63 2.839 23.362 2.802 A 5.695 5.695 0 0 0 23.2 2.8 A 6.229 6.229 0 0 0 20.259 3.562 Q 19.394 4.019 18.55 4.75 A 17.795 17.795 0 0 0 15.933 7.598 A 22.644 22.644 0 0 0 14.55 9.7 Q 12.8 12.7 11.8 15.9 Q 10.8 19.1 10.8 21.6 Q 10.8 23.5 11.3 25 Q 8 25 6.65 23.35 A 5.937 5.937 0 0 1 5.351 20.209 A 7.818 7.818 0 0 1 5.3 19.3 A 12.387 12.387 0 0 1 6.245 14.625 A 16.101 16.101 0 0 1 7.3 12.5 A 26.256 26.256 0 0 1 11.68 6.971 A 29.967 29.967 0 0 1 12.45 6.25 A 30.287 30.287 0 0 1 16.923 2.875 A 26.26 26.26 0 0 1 19.05 1.7 A 19.701 19.701 0 0 1 21.521 0.673 Q 22.845 0.231 24.059 0.08 A 10.004 10.004 0 0 1 25.3 0 A 7.55 7.55 0 0 1 26.576 0.1 Q 27.247 0.215 27.763 0.465 A 2.82 2.82 0 0 1 28.95 1.5 Q 29.9 3 29.9 4.8 Q 29.9 5.9 29.65 7 Q 29.4 8.1 29.1 9.1 L 20.7 36.3 A 15.387 15.387 0 0 1 22.843 33.861 A 19.287 19.287 0 0 1 24.35 32.6 Q 26.6 30.9 29.3 28.7 Q 33.8 25.1 38.95 20.3 Q 44.1 15.5 48.8 10.2 Q 53.5 4.9 56.6 0 A 2.08 2.08 0 0 1 56.883 0.463 Q 57.1 0.934 57.232 1.662 A 9.642 9.642 0 0 1 57.3 2.1 Q 57.5 3.6 57.5 4.4 A 8.967 8.967 0 0 1 57.012 7.228 Q 56.62 8.408 55.915 9.662 A 20.009 20.009 0 0 1 54.95 11.2 Q 52.4 14.9 48.3 18.85 A 114.363 114.363 0 0 1 41.7 24.719 A 131.019 131.019 0 0 1 39.3 26.65 A 273.373 273.373 0 0 1 30.84 33.043 A 247.977 247.977 0 0 1 29.65 33.9 A 328.395 328.395 0 0 1 25.676 36.703 Q 23.847 37.971 22.188 39.079 A 191.092 191.092 0 0 1 21.1 39.8 A 510.984 510.984 0 0 0 25.516 47.169 A 446.391 446.391 0 0 0 26.95 49.5 Q 29.8 54.1 33.15 58.5 A 88.372 88.372 0 0 0 37.534 63.796 A 110.906 110.906 0 0 0 41 67.5 A 114.304 114.304 0 0 0 45.301 71.659 Q 47.55 73.729 50.138 75.923 A 195.495 195.495 0 0 0 51.9 77.4 Q 51.2 78.7 49.7 79.7 Q 48.2 80.7 46.5 80.7 Q 44.3 80.7 41.4 78.1 A 36.404 36.404 0 0 1 38.986 75.707 Q 37.18 73.753 35.25 71.2 A 121.892 121.892 0 0 1 30.53 64.48 A 141.414 141.414 0 0 1 28.85 61.85 Q 25.7 56.8 23.05 51.8 A 230.448 230.448 0 0 1 20.894 47.636 Q 19.933 45.729 19.123 44.019 A 126.789 126.789 0 0 1 18.6 42.9 Z M 337.8 55.8 L 339 56.7 Q 337.1 61.8 333.8 65.85 A 33.02 33.02 0 0 1 330.222 69.624 A 25.676 25.676 0 0 1 326.75 72.25 A 17.904 17.904 0 0 1 323.987 73.682 Q 321.725 74.6 319.6 74.6 A 8.692 8.692 0 0 1 317.697 74.406 Q 316.526 74.143 315.682 73.523 A 4.574 4.574 0 0 1 314.45 72.15 A 10.455 10.455 0 0 1 313.249 69.228 A 9.21 9.21 0 0 1 313 67.1 A 15.445 15.445 0 0 1 313.049 65.93 Q 313.149 64.618 313.455 62.854 A 52.643 52.643 0 0 1 313.5 62.6 Q 314 59.8 314.9 56.4 A 77.331 77.331 0 0 1 310.311 63.191 A 66.067 66.067 0 0 1 308.1 65.95 Q 305.068 69.53 302.142 71.797 A 26.353 26.353 0 0 1 301.05 72.6 A 16.321 16.321 0 0 1 298.719 73.967 Q 297.354 74.613 296.047 74.855 A 8.474 8.474 0 0 1 294.5 75 A 7.361 7.361 0 0 1 292.139 74.598 A 9.263 9.263 0 0 1 291.05 74.15 A 6.565 6.565 0 0 1 288.783 72.31 A 8.468 8.468 0 0 1 288.15 71.4 Q 287.126 69.708 287.014 67.223 A 13.825 13.825 0 0 1 287 66.6 A 16.265 16.265 0 0 1 287.329 63.445 Q 287.626 61.943 288.192 60.306 A 30.352 30.352 0 0 1 288.6 59.2 A 41.09 41.09 0 0 1 291.6 53.11 A 48.097 48.097 0 0 1 292.9 51.05 Q 295.6 47 299.1 43.55 A 35.024 35.024 0 0 1 303.362 39.947 A 28.885 28.885 0 0 1 306.4 38.05 A 17.989 17.989 0 0 1 310.058 36.545 A 14.115 14.115 0 0 1 313.9 36 Q 316 36 317.15 36.75 A 2.452 2.452 0 0 1 318.258 38.519 A 3.84 3.84 0 0 1 318.3 39.1 A 5.414 5.414 0 0 1 318.291 39.43 Q 318.281 39.581 318.263 39.714 A 2.995 2.995 0 0 1 318.25 39.8 Q 318.2 40.1 318.1 40.5 A 2.757 2.757 0 0 0 316.781 39.402 A 3.453 3.453 0 0 0 316.65 39.35 Q 315.876 39.065 314.803 39.012 A 10.238 10.238 0 0 0 314.3 39 Q 311.1 39 308.05 40.95 A 22.456 22.456 0 0 0 303.924 44.373 A 26.99 26.99 0 0 0 302.45 46.05 Q 299.9 49.2 298 52.8 A 45.934 45.934 0 0 0 296.131 56.771 A 36.774 36.774 0 0 0 295.05 59.75 A 29.379 29.379 0 0 0 294.452 61.929 Q 294 63.891 294 65.4 A 7.868 7.868 0 0 0 294.118 66.806 Q 294.344 68.047 295 68.9 Q 295.996 70.194 297.586 70.2 A 3.928 3.928 0 0 0 297.6 70.2 A 5.577 5.577 0 0 0 299.496 69.834 Q 301.563 69.085 304.15 66.8 A 32.998 32.998 0 0 0 307.181 63.717 Q 309.563 60.978 312 57.2 A 69.921 69.921 0 0 0 316.136 49.791 A 92.7 92.7 0 0 0 319.2 42.7 Q 321.4 36.9 323.75 30.9 A 362.956 362.956 0 0 1 327.901 20.745 A 329.715 329.715 0 0 1 328.5 19.35 Q 330.9 13.8 333.15 9.45 Q 334.769 6.319 336.285 4.121 A 26.687 26.687 0 0 1 337.45 2.55 A 13.346 13.346 0 0 1 338.386 1.495 Q 339.875 0 341.1 0 A 1.801 1.801 0 0 1 342.347 0.498 A 2.481 2.481 0 0 1 342.5 0.65 A 2.24 2.24 0 0 1 343.078 1.934 A 3.03 3.03 0 0 1 343.1 2.3 Q 343.1 3.784 341.681 7.204 A 51.833 51.833 0 0 1 341.45 7.75 Q 340.316 10.397 338.709 13.753 A 267.949 267.949 0 0 1 337.15 16.95 Q 334.5 22.3 331.6 28.6 Q 328.7 34.9 326.05 41.4 A 117.204 117.204 0 0 0 323.128 49.349 A 98.956 98.956 0 0 0 321.75 53.95 A 51.358 51.358 0 0 0 320.622 59.043 Q 320.165 61.795 320.108 64.292 A 30.986 30.986 0 0 0 320.1 65 A 41.959 41.959 0 0 0 320.124 66.464 Q 320.17 67.789 320.307 68.689 A 8.73 8.73 0 0 0 320.4 69.2 Q 320.7 70.6 322.4 70.6 Q 323.875 70.6 325.694 69.713 A 15.765 15.765 0 0 0 327.3 68.8 Q 329.821 67.179 332.342 64.343 A 37.102 37.102 0 0 0 332.9 63.7 A 30.908 30.908 0 0 0 336.053 59.196 A 39.266 39.266 0 0 0 337.8 55.8 Z M 104.5 55.8 L 105.8 57 A 42.583 42.583 0 0 1 101.793 64.336 A 38.605 38.605 0 0 1 100.7 65.85 A 28.838 28.838 0 0 1 97.343 69.581 A 23.002 23.002 0 0 1 94.1 72.1 A 14.763 14.763 0 0 1 89.955 73.96 A 12.951 12.951 0 0 1 86.6 74.4 A 10.271 10.271 0 0 1 84.636 74.224 Q 83.49 74.001 82.604 73.493 A 5.225 5.225 0 0 1 81.45 72.6 Q 79.7 70.8 79.7 68.1 A 13.124 13.124 0 0 1 79.876 66.022 Q 80.038 65.014 80.349 63.913 A 23.043 23.043 0 0 1 80.5 63.4 Q 81.3 60.8 82.05 58.1 A 21.219 21.219 0 0 0 82.651 55.197 A 16.807 16.807 0 0 0 82.8 53 A 9.726 9.726 0 0 0 82.722 51.725 Q 82.508 50.108 81.7 49.3 A 3.664 3.664 0 0 0 79.05 48.2 A 4.623 4.623 0 0 0 79 48.2 A 5.953 5.953 0 0 0 75.268 49.52 A 8.18 8.18 0 0 0 74.5 50.2 Q 72.5 52.2 70.85 55.35 Q 69.2 58.5 67.75 62 Q 66.3 65.5 65 68.65 A 44.193 44.193 0 0 1 64.025 70.851 Q 63.52 71.906 63.016 72.788 A 20.912 20.912 0 0 1 62.4 73.8 Q 61.1 75.8 59.7 75.8 A 2.236 2.236 0 0 1 58.095 75.097 Q 57.394 74.408 56.862 73.042 A 11.663 11.663 0 0 1 56.7 72.6 Q 56.043 70.69 55.779 68.495 A 25.855 25.855 0 0 1 55.6 65.4 Q 55.6 61.731 56.535 57.01 A 72.896 72.896 0 0 1 57.2 54 A 129.608 129.608 0 0 1 59.591 45.477 A 157.921 157.921 0 0 1 61.4 40.1 Q 64 32.8 67.25 25.8 Q 70.5 18.8 73.9 13.1 A 87.584 87.584 0 0 1 76.343 9.224 Q 77.565 7.4 78.731 5.9 A 39.72 39.72 0 0 1 80.3 4 A 19.478 19.478 0 0 1 81.662 2.593 Q 83.816 0.6 85.5 0.6 Q 87.195 0.6 87.959 2.506 A 5.718 5.718 0 0 1 88.05 2.75 Q 88.8 4.9 88.8 6.9 A 15.955 15.955 0 0 1 88.624 9.169 Q 88.459 10.312 88.14 11.602 A 36.141 36.141 0 0 1 87.55 13.7 A 55.096 55.096 0 0 1 85.954 18.105 A 72.98 72.98 0 0 1 84.1 22.25 Q 81.9 26.8 79 31.2 A 61.285 61.285 0 0 1 72.912 39.021 A 56.847 56.847 0 0 1 72.7 39.25 A 37.76 37.76 0 0 1 69.383 42.422 A 27.853 27.853 0 0 1 65.8 45 Q 64.6 47.9 63.75 51.5 A 62.247 62.247 0 0 0 62.607 57.685 A 56.757 56.757 0 0 0 62.5 58.55 Q 62.1 62 62.1 64.7 A 41.325 41.325 0 0 0 62.107 65.483 Q 62.114 65.869 62.129 66.209 A 21.261 21.261 0 0 0 62.15 66.6 A 20.408 20.408 0 0 0 62.232 67.561 A 16.896 16.896 0 0 0 62.3 68.1 Q 63.7 64 65.35 60.15 A 67.355 67.355 0 0 1 67.737 55.14 A 57.403 57.403 0 0 1 68.9 53.05 A 40.351 40.351 0 0 1 71.117 49.647 A 32.497 32.497 0 0 1 72.95 47.35 A 19.99 19.99 0 0 1 75.234 45.116 A 15.47 15.47 0 0 1 77.5 43.55 Q 79.9 42.2 82.6 42.2 A 9.404 9.404 0 0 1 84.427 42.367 Q 85.98 42.675 87.05 43.55 Q 88.7 44.9 89.45 46.95 Q 90.2 49 90.2 51.2 Q 90.2 54.3 89.15 57.2 A 152.389 152.389 0 0 1 87.069 62.631 A 140.069 140.069 0 0 1 87 62.8 Q 85.9 65.5 85.9 68 A 7.436 7.436 0 0 0 85.967 69.038 Q 86.134 70.22 86.717 70.865 A 2.244 2.244 0 0 0 86.75 70.9 A 2.813 2.813 0 0 0 88.799 71.799 A 3.681 3.681 0 0 0 88.9 71.8 A 5.853 5.853 0 0 0 90.84 71.444 Q 91.64 71.163 92.496 70.66 A 14.947 14.947 0 0 0 94.05 69.6 A 26.056 26.056 0 0 0 96.711 67.219 Q 97.978 65.928 99.235 64.346 A 44.523 44.523 0 0 0 99.7 63.75 Q 102.5 60.1 104.5 55.8 Z M 233.5 55.8 L 234.8 56.8 Q 233.3 61.3 230 65 A 44.297 44.297 0 0 1 224.111 70.532 A 40.211 40.211 0 0 1 222.95 71.4 A 60.893 60.893 0 0 1 220.01 73.396 Q 217.941 74.71 216.1 75.6 A 129.454 129.454 0 0 1 212.483 83.526 A 105.975 105.975 0 0 1 210.2 87.85 A 52.075 52.075 0 0 1 207.84 91.696 Q 206.499 93.673 205.114 95.252 A 27.278 27.278 0 0 1 203.75 96.7 Q 200.4 100 196.6 100 Q 194.4 100 192.6 98.65 A 4.195 4.195 0 0 1 191.132 96.541 Q 190.893 95.816 190.826 94.924 A 9.642 9.642 0 0 1 190.8 94.2 Q 190.8 91.2 192.65 88.65 A 20.434 20.434 0 0 1 195.53 85.476 A 25.312 25.312 0 0 1 197.4 83.95 A 46.795 46.795 0 0 1 202.685 80.571 A 52.595 52.595 0 0 1 203.75 80 Q 207.2 78.2 210.3 76.6 A 92.534 92.534 0 0 0 211.991 72.01 A 110.269 110.269 0 0 0 212.95 69.05 Q 214.2 65 215.4 60.1 Q 211.6 65.6 207.45 69.25 A 17.752 17.752 0 0 1 204.593 71.327 Q 202.734 72.396 200.864 72.739 A 9.771 9.771 0 0 1 199.1 72.9 A 7.637 7.637 0 0 1 196.633 72.521 A 6.201 6.201 0 0 1 193.55 70.2 Q 191.738 67.691 191.61 63.801 A 18.232 18.232 0 0 1 191.6 63.2 Q 191.6 58 194.15 53.3 Q 196.7 48.6 200.8 45 Q 204.9 41.4 209.5 39.35 Q 213.856 37.409 217.674 37.306 A 15.802 15.802 0 0 1 218.1 37.3 Q 220.563 37.3 221.836 37.986 A 3.153 3.153 0 0 1 222.25 38.25 A 3.773 3.773 0 0 1 222.936 38.911 A 2.504 2.504 0 0 1 223.5 40.5 Q 223.5 41.261 223.143 41.736 A 1.548 1.548 0 0 1 223 41.9 Q 222.566 42.334 222.358 42.467 A 0.649 0.649 0 0 1 222.3 42.5 Q 221.8 41.7 220.8 41.35 A 5.592 5.592 0 0 0 219.905 41.124 Q 219.459 41.046 218.943 41.018 A 11.489 11.489 0 0 0 218.3 41 Q 214.4 41 210.75 43.3 A 25.034 25.034 0 0 0 204.476 48.976 A 28.172 28.172 0 0 0 204.3 49.2 Q 201.5 52.8 199.85 56.65 A 23.238 23.238 0 0 0 198.782 59.671 Q 198.336 61.301 198.232 62.797 A 12.973 12.973 0 0 0 198.2 63.7 A 9.72 9.72 0 0 0 198.288 65.056 Q 198.386 65.746 198.591 66.306 A 3.972 3.972 0 0 0 199.15 67.35 Q 200.071 68.562 201.602 68.599 A 4.021 4.021 0 0 0 201.7 68.6 A 5.688 5.688 0 0 0 203.778 68.166 Q 205.475 67.498 207.477 65.805 A 27.149 27.149 0 0 0 208.65 64.75 A 52.859 52.859 0 0 0 213.097 59.934 A 69.283 69.283 0 0 0 216.5 55.4 A 251.7 251.7 0 0 1 216.77 54.154 Q 216.917 53.485 217.05 52.9 Q 217.288 51.855 217.661 50.268 A 691.699 691.699 0 0 1 217.7 50.1 A 7.107 7.107 0 0 1 218.043 48.99 Q 218.261 48.438 218.584 47.83 A 16.7 16.7 0 0 1 219.15 46.85 Q 220.3 45 222.8 45 Q 223.3 45 223.8 45.05 Q 224.268 45.097 224.824 45.275 A 7.074 7.074 0 0 1 224.9 45.3 Q 224.9 46.9 223.95 51.15 Q 223 55.4 221.25 61.05 Q 219.5 66.7 217.2 72.7 A 33.657 33.657 0 0 0 222.066 69.794 A 38.916 38.916 0 0 0 223.65 68.6 Q 226.8 66.1 229.4 62.85 Q 232 59.6 233.5 55.8 Z M 376.7 55.8 L 378 56.8 A 23.959 23.959 0 0 1 374.889 63.282 A 22.013 22.013 0 0 1 373.45 65.15 Q 370.4 68.7 366.6 71.25 A 57.235 57.235 0 0 1 361.656 74.231 A 48.068 48.068 0 0 1 359.1 75.5 Q 356.5 81.9 353.45 87.5 A 53.167 53.167 0 0 1 350.922 91.695 Q 349.539 93.756 348.099 95.408 A 28.844 28.844 0 0 1 347.05 96.55 A 14.665 14.665 0 0 1 344.942 98.37 Q 343.628 99.287 342.292 99.688 A 7.237 7.237 0 0 1 340.2 100 A 7.836 7.836 0 0 1 337.51 99.549 A 7.144 7.144 0 0 1 335.8 98.65 A 4.374 4.374 0 0 1 333.942 95.445 A 6.415 6.415 0 0 1 333.9 94.7 A 10.908 10.908 0 0 1 334.487 91.082 A 9.901 9.901 0 0 1 335.5 89 A 17.201 17.201 0 0 1 338.065 85.9 A 21.548 21.548 0 0 1 339.8 84.4 Q 342.5 82.3 346 80.4 A 241.49 241.49 0 0 1 352.355 77.075 A 265.895 265.895 0 0 1 353.3 76.6 Q 354.7 72.9 356.15 68.35 A 122.668 122.668 0 0 0 357.734 62.931 A 157.768 157.768 0 0 0 358.9 58.3 A 56.902 56.902 0 0 1 355.158 63.691 A 45.128 45.128 0 0 1 352.05 67.25 Q 349.044 70.339 345.732 70.884 A 8.809 8.809 0 0 1 344.3 71 A 8.801 8.801 0 0 1 340.897 70.302 A 10.235 10.235 0 0 1 340.55 70.15 Q 338.7 69.3 337.5 67.5 A 6.79 6.79 0 0 1 336.564 65.305 Q 336.349 64.418 336.309 63.385 A 12.468 12.468 0 0 1 336.3 62.9 A 20.227 20.227 0 0 1 336.469 60.377 Q 336.701 58.539 337.25 56.4 Q 338.2 52.7 339.6 49.2 A 44.768 44.768 0 0 1 340.664 46.744 Q 341.254 45.493 341.86 44.444 A 22.783 22.783 0 0 1 342.5 43.4 Q 343.913 41.234 344.971 41.108 A 1.093 1.093 0 0 1 345.1 41.1 A 1.833 1.833 0 0 1 345.332 41.118 Q 345.754 41.173 346.55 41.4 Q 347.6 41.7 348.55 42.25 Q 349.3 42.684 349.458 43.15 A 0.775 0.775 0 0 1 349.5 43.4 Q 348.6 44.7 347.5 47.1 Q 346.4 49.5 345.35 52.45 Q 344.3 55.4 343.6 58.2 A 28.452 28.452 0 0 0 343.175 60.178 Q 343.007 61.134 342.942 61.973 A 13.222 13.222 0 0 0 342.9 63 A 6.596 6.596 0 0 0 343.003 64.204 Q 343.188 65.195 343.7 65.9 Q 344.352 66.796 345.799 66.962 A 6.151 6.151 0 0 0 346.5 67 Q 347.864 67 349.46 66.046 A 12.282 12.282 0 0 0 350.75 65.15 Q 353.1 63.3 355.45 60.4 Q 357.8 57.5 359.8 54.2 Q 360.1 53.1 360.35 51.95 Q 360.6 50.8 360.8 49.6 A 7.107 7.107 0 0 1 361.143 48.49 Q 361.361 47.938 361.684 47.33 A 16.7 16.7 0 0 1 362.25 46.35 Q 363.4 44.5 365.9 44.5 Q 366.4 44.5 366.9 44.55 Q 367.368 44.597 367.924 44.775 A 7.074 7.074 0 0 1 368 44.8 A 9.33 9.33 0 0 1 367.948 45.701 Q 367.817 47.017 367.36 49.278 A 96.934 96.934 0 0 1 367.05 50.75 Q 366.1 55.1 364.35 60.9 A 150.838 150.838 0 0 1 361.077 70.523 A 169.794 169.794 0 0 1 360.2 72.8 A 25.526 25.526 0 0 0 365.424 70.032 A 34.586 34.586 0 0 0 369.4 66.85 A 26.554 26.554 0 0 0 373.925 61.311 A 36.141 36.141 0 0 0 376.7 55.8 Z M 148.2 55.8 L 149.2 56.8 A 37.287 37.287 0 0 1 145.745 63.611 A 32.548 32.548 0 0 1 143.8 66.3 Q 140.5 70.4 136.75 72.7 A 17.14 17.14 0 0 1 133.613 74.231 A 12.358 12.358 0 0 1 129.4 75 A 9.836 9.836 0 0 1 127.326 74.796 Q 126.048 74.52 125.1 73.872 A 5.25 5.25 0 0 1 123.95 72.8 A 8.161 8.161 0 0 1 122.597 70.387 A 7.247 7.247 0 0 1 122.2 68 A 8.603 8.603 0 0 1 122.223 67.384 Q 122.248 67.037 122.3 66.65 Q 122.4 65.9 122.5 65.1 Q 119.681 68.903 117.184 71.459 A 30.925 30.925 0 0 1 114.65 73.8 A 14.686 14.686 0 0 1 111.966 75.567 Q 109.712 76.7 107.4 76.7 Q 104.3 76.7 102.15 74.65 A 6.384 6.384 0 0 1 100.521 72.014 Q 100.179 70.999 100.062 69.76 A 14.414 14.414 0 0 1 100 68.4 A 18.649 18.649 0 0 1 100.452 64.42 Q 100.844 62.624 101.577 60.711 A 30.579 30.579 0 0 1 101.6 60.65 A 37.798 37.798 0 0 1 104.655 54.513 A 44.377 44.377 0 0 1 106 52.45 Q 108.8 48.4 112.35 45.05 A 33.55 33.55 0 0 1 117.42 41.082 A 29.188 29.188 0 0 1 119.85 39.7 A 19.076 19.076 0 0 1 124.033 38.14 A 15.733 15.733 0 0 1 127.7 37.7 A 12.227 12.227 0 0 1 130.746 38.062 A 9.203 9.203 0 0 1 134.2 39.75 A 6.51 6.51 0 0 1 136.769 44.473 A 8.351 8.351 0 0 1 136.8 45.2 A 7.213 7.213 0 0 1 136.71 46.383 Q 136.452 47.932 135.45 48.6 Q 134.296 49.37 132.52 49.481 A 9.891 9.891 0 0 1 131.9 49.5 A 18.324 18.324 0 0 0 132.109 48.553 A 23.066 23.066 0 0 0 132.25 47.75 Q 132.4 46.8 132.4 46 A 8.048 8.048 0 0 0 132.166 44.018 A 6.315 6.315 0 0 0 131.3 42.05 A 3.459 3.459 0 0 0 129.43 40.672 Q 128.597 40.4 127.5 40.4 A 8.865 8.865 0 0 0 124.229 41.052 Q 123.099 41.498 121.953 42.249 A 15.426 15.426 0 0 0 121.8 42.35 A 23.691 23.691 0 0 0 118.644 44.913 A 31.64 31.64 0 0 0 116.2 47.55 Q 113.5 50.8 111.4 54.6 A 45.316 45.316 0 0 0 108.984 59.661 A 38.5 38.5 0 0 0 108.1 62.1 A 28.274 28.274 0 0 0 107.323 64.974 Q 107.019 66.415 106.933 67.709 A 15.035 15.035 0 0 0 106.9 68.7 Q 106.9 72.493 109.454 72.597 A 3.589 3.589 0 0 0 109.6 72.6 Q 111.9 72.6 114.6 70.45 A 33.59 33.59 0 0 0 117.164 68.171 Q 118.44 66.921 119.749 65.417 A 56.926 56.926 0 0 0 120.15 64.95 Q 123 61.6 125.6 58 Q 128.2 54.4 130.2 51.4 A 9.739 9.739 0 0 1 130.329 51.212 Q 130.566 50.873 130.664 50.813 A 0.072 0.072 0 0 1 130.7 50.8 A 6.992 6.992 0 0 1 131.109 50.882 Q 131.564 50.987 132.164 51.173 A 22.651 22.651 0 0 1 132.25 51.2 A 6.466 6.466 0 0 1 133.233 51.598 A 5.186 5.186 0 0 1 133.9 52 A 1.808 1.808 0 0 1 134.327 52.417 A 1.48 1.48 0 0 1 134.6 53.3 A 2.51 2.51 0 0 1 134.521 53.892 Q 134.376 54.485 133.966 55.269 A 12.368 12.368 0 0 1 133.7 55.75 A 145.901 145.901 0 0 0 132.812 57.302 Q 132.284 58.238 131.7 59.3 Q 130.6 61.3 129.7 63.35 Q 128.832 65.328 128.801 67.073 A 7.254 7.254 0 0 0 128.8 67.2 A 5.859 5.859 0 0 0 129.328 69.605 A 7.159 7.159 0 0 0 129.6 70.15 A 2.722 2.722 0 0 0 130.57 71.191 Q 131.086 71.504 131.767 71.578 A 4.039 4.039 0 0 0 132.2 71.6 A 5.135 5.135 0 0 0 133.953 71.252 Q 136.206 70.428 139.3 67.65 A 31.332 31.332 0 0 0 142.545 64.217 Q 144.08 62.348 145.628 60.006 A 74.771 74.771 0 0 0 148.2 55.8 Z M 194.7 55.8 L 195.8 57.1 A 56.018 56.018 0 0 1 193.279 62.265 A 44.946 44.946 0 0 1 191.1 65.8 A 27.462 27.462 0 0 1 188.464 69.106 A 20.479 20.479 0 0 1 185.4 71.8 Q 182.3 74 178.5 74 Q 176.106 74 174.531 73.158 A 5.175 5.175 0 0 1 173.25 72.2 A 6.116 6.116 0 0 1 171.543 68.451 A 8.266 8.266 0 0 1 171.5 67.6 Q 171.5 65.5 172.25 63.2 Q 173 60.9 173.7 58.45 A 18.17 18.17 0 0 0 174.325 55.226 A 15.671 15.671 0 0 0 174.4 53.7 Q 174.4 50.9 173.25 49.85 A 3.986 3.986 0 0 0 170.765 48.813 A 5.228 5.228 0 0 0 170.4 48.8 A 8.365 8.365 0 0 0 167.078 49.52 Q 165.923 50.016 164.755 50.854 A 16.284 16.284 0 0 0 164.1 51.35 A 31.759 31.759 0 0 0 160.756 54.455 A 42.501 42.501 0 0 0 157.9 57.85 Q 154.9 61.8 152.3 66 A 1155.207 1155.207 0 0 0 150.14 69.503 Q 149.154 71.109 148.274 72.554 A 676.735 676.735 0 0 0 147.7 73.5 Q 146.1 73.5 144.65 72.95 A 5.431 5.431 0 0 1 143.398 72.288 A 4.401 4.401 0 0 1 142.4 71.3 A 1.302 1.302 0 0 1 142.437 71.039 Q 142.597 70.313 143.45 68.2 A 159.88 159.88 0 0 0 144.287 66.081 Q 144.656 65.128 145.059 64.058 A 327.122 327.122 0 0 0 145.9 61.8 Q 147.3 58 148.4 54 A 33.742 33.742 0 0 0 149.152 50.634 Q 149.456 48.816 149.495 47.168 A 20.252 20.252 0 0 0 149.5 46.7 A 4.136 4.136 0 0 1 149.995 46.219 Q 150.543 45.763 151.387 45.307 A 13.096 13.096 0 0 1 151.4 45.3 A 5.691 5.691 0 0 1 153.622 44.621 A 5.515 5.515 0 0 1 154.1 44.6 A 4.051 4.051 0 0 1 155.152 44.725 Q 156.52 45.093 156.752 46.555 A 4.109 4.109 0 0 1 156.8 47.2 Q 156.8 48.774 155.93 52.426 A 78.551 78.551 0 0 1 155.9 52.55 A 82.123 82.123 0 0 1 154.58 57.374 A 97.759 97.759 0 0 1 153.6 60.4 A 92.214 92.214 0 0 1 158.823 53.263 A 102.333 102.333 0 0 1 159.65 52.25 A 40.271 40.271 0 0 1 164.013 47.715 A 33.722 33.722 0 0 1 166.8 45.5 A 16.272 16.272 0 0 1 169.88 43.755 A 11.532 11.532 0 0 1 174.4 42.8 A 8.504 8.504 0 0 1 176.628 43.074 A 5.632 5.632 0 0 1 180.05 45.6 Q 181.8 48.4 181.8 51.8 A 16.878 16.878 0 0 1 181.327 55.85 A 14.919 14.919 0 0 1 180.8 57.55 A 126.279 126.279 0 0 1 179.012 62.035 A 115.236 115.236 0 0 1 178.75 62.65 A 12.703 12.703 0 0 0 177.743 66.587 A 11.87 11.87 0 0 0 177.7 67.6 Q 177.7 69.408 178.33 70.289 A 2.069 2.069 0 0 0 178.55 70.55 A 2.871 2.871 0 0 0 180.497 71.395 A 3.82 3.82 0 0 0 180.7 71.4 A 5.866 5.866 0 0 0 183.278 70.775 Q 184.111 70.372 184.943 69.708 A 12.367 12.367 0 0 0 185.7 69.05 Q 188.122 66.774 190.403 63.324 A 45.221 45.221 0 0 0 190.55 63.1 Q 192.9 59.5 194.7 55.8 Z M 290.6 55.8 L 292.1 56.6 A 68.426 68.426 0 0 1 288.868 62.699 Q 286.264 67.034 283.4 70.05 Q 279.395 74.268 274.882 74.892 A 11.54 11.54 0 0 1 273.3 75 A 9.816 9.816 0 0 1 270.963 74.74 A 5.995 5.995 0 0 1 267.15 72.05 Q 265.377 69.223 265.303 65.065 A 20.503 20.503 0 0 1 265.3 64.7 Q 265.3 61.072 266.328 56.416 A 65.721 65.721 0 0 1 267.1 53.3 Q 268.9 46.7 271.85 39.4 Q 274.8 32.1 278.3 25.15 Q 281.8 18.2 285.3 12.5 A 100.995 100.995 0 0 1 287.745 8.7 Q 289.86 5.578 291.75 3.4 A 24.453 24.453 0 0 1 292.97 2.086 Q 295.069 0 296.4 0 A 1.771 1.771 0 0 1 297.698 0.564 Q 297.935 0.804 298.14 1.147 A 4.111 4.111 0 0 1 298.2 1.25 Q 298.856 2.422 299.249 4.033 A 15.61 15.61 0 0 1 299.3 4.25 Q 299.658 5.816 299.696 7.101 A 10.197 10.197 0 0 1 299.7 7.4 A 14.488 14.488 0 0 1 299.555 9.35 Q 299.277 11.383 298.468 14.065 A 50.358 50.358 0 0 1 298.35 14.45 A 65.881 65.881 0 0 1 296.958 18.448 Q 295.928 21.141 294.55 24.15 A 97.709 97.709 0 0 1 290.369 32.231 A 110.916 110.916 0 0 1 288.75 34.95 Q 285.4 40.4 281.45 45.4 A 58.862 58.862 0 0 1 276.072 51.36 A 49.717 49.717 0 0 1 273.1 54 A 66.011 66.011 0 0 0 272.265 58.45 A 59.276 59.276 0 0 0 272.15 59.25 A 37.76 37.76 0 0 0 271.838 62.564 A 31.905 31.905 0 0 0 271.8 64.1 A 22.133 22.133 0 0 0 271.887 66.136 Q 272.076 68.178 272.678 69.472 A 5.389 5.389 0 0 0 272.9 69.9 A 3.975 3.975 0 0 0 273.9 71.074 Q 274.84 71.8 276.2 71.8 Q 278.632 71.8 281.024 69.852 A 13.216 13.216 0 0 0 281.55 69.4 A 26.199 26.199 0 0 0 284.281 66.497 A 35.163 35.163 0 0 0 286.55 63.35 Q 288.9 59.7 290.6 55.8 Z M 267 55.8 L 268.2 56.7 A 38.699 38.699 0 0 1 263.57 64.499 A 34.54 34.54 0 0 1 261.35 67.1 A 34.719 34.719 0 0 1 255.889 71.838 A 29.735 29.735 0 0 1 252.35 73.95 A 22.673 22.673 0 0 1 245.958 76.104 A 20.349 20.349 0 0 1 242.5 76.4 A 17.65 17.65 0 0 1 238.985 76.073 Q 236.94 75.657 235.376 74.712 A 9.065 9.065 0 0 1 233.35 73.05 Q 230.3 69.7 230.3 64.8 A 20.368 20.368 0 0 1 231.012 59.579 A 27.753 27.753 0 0 1 232.55 55.3 A 39.353 39.353 0 0 1 238.521 45.935 A 43.151 43.151 0 0 1 238.55 45.9 A 36.04 36.04 0 0 1 244.061 40.63 A 31.684 31.684 0 0 1 246.8 38.75 A 20.295 20.295 0 0 1 250.718 36.87 A 15.115 15.115 0 0 1 255.7 36 Q 258 36 259.95 37.2 A 3.578 3.578 0 0 1 261.35 38.874 Q 261.896 40.125 261.9 42.071 A 14.038 14.038 0 0 1 261.9 42.1 A 12.531 12.531 0 0 1 259.822 48.988 A 15.179 15.179 0 0 1 259.65 49.25 Q 257.4 52.6 253.75 55.2 Q 250.1 57.8 245.75 59.45 A 33.683 33.683 0 0 1 238.849 61.286 A 30.478 30.478 0 0 1 237.1 61.5 A 23.767 23.767 0 0 0 236.889 62.711 A 19.875 19.875 0 0 0 236.8 63.4 A 16.544 16.544 0 0 0 236.714 64.486 A 13.732 13.732 0 0 0 236.7 65.1 Q 236.7 66.6 237.05 68.1 Q 237.4 69.6 238.3 70.85 A 5.787 5.787 0 0 0 240.192 72.518 A 7.101 7.101 0 0 0 240.75 72.8 A 7.298 7.298 0 0 0 242.309 73.291 Q 243.052 73.441 243.91 73.484 A 14.017 14.017 0 0 0 244.6 73.5 Q 248.9 73.5 253.1 71.05 Q 257.3 68.6 260.9 64.6 Q 264.5 60.6 267 55.8 Z M 274 50.6 A 62.647 62.647 0 0 0 278.508 45.554 A 75.912 75.912 0 0 0 280.8 42.55 Q 284.1 38 286.95 33.1 Q 289.8 28.2 292 23.6 Q 294.2 19 295.4 15.35 Q 296.398 12.315 296.566 10.421 A 8.177 8.177 0 0 0 296.6 9.7 A 6.299 6.299 0 0 0 296.588 9.296 Q 296.549 8.69 296.382 8.443 A 0.526 0.526 0 0 0 296.35 8.4 A 1.556 1.556 0 0 0 296.236 8.276 Q 296.108 8.153 295.994 8.116 A 0.304 0.304 0 0 0 295.9 8.1 A 0.927 0.927 0 0 0 295.464 8.239 Q 294.645 8.695 293.15 10.65 A 49.537 49.537 0 0 0 291.733 12.61 Q 290.306 14.678 288.6 17.5 Q 286 21.8 283.3 27.3 A 183.076 183.076 0 0 0 278.303 38.426 A 199.301 199.301 0 0 0 278.15 38.8 A 123.762 123.762 0 0 0 274.465 49.056 A 111.599 111.599 0 0 0 274 50.6 Z M 67.1 41.1 A 28.296 28.296 0 0 0 70.033 38.424 A 37.783 37.783 0 0 0 72.55 35.5 Q 75.2 32.1 77.5 28.25 A 103.637 103.637 0 0 0 80.669 22.56 A 91.068 91.068 0 0 0 81.6 20.7 A 69.821 69.821 0 0 0 83.022 17.597 Q 83.837 15.688 84.4 14 Q 85.4 11 85.4 9.5 A 3.935 3.935 0 0 0 85.395 9.298 Q 85.38 9.007 85.318 8.881 A 0.282 0.282 0 0 0 85.3 8.85 A 0.323 0.323 0 0 0 85.066 8.705 A 0.471 0.471 0 0 0 85 8.7 A 0.775 0.775 0 0 0 84.628 8.829 Q 83.892 9.262 82.39 11.146 A 40.963 40.963 0 0 0 82.15 11.45 A 50.487 50.487 0 0 0 80.595 13.559 Q 79.816 14.67 78.968 15.981 A 118.972 118.972 0 0 0 77.2 18.8 Q 74.4 23.4 71.7 29.2 Q 69 35 67.1 41.1 Z M 242.715 57.446 A 63.326 63.326 0 0 0 243.7 56.95 Q 247.1 55.2 250.25 52.8 A 25.888 25.888 0 0 0 253.873 49.477 A 22.105 22.105 0 0 0 255.45 47.5 A 11.479 11.479 0 0 0 257.003 44.478 A 9.744 9.744 0 0 0 257.5 41.4 A 4.876 4.876 0 0 0 257.461 40.762 Q 257.375 40.113 257.1 39.7 A 1.112 1.112 0 0 0 256.638 39.317 Q 256.254 39.135 255.639 39.106 A 5.098 5.098 0 0 0 255.4 39.1 A 7.193 7.193 0 0 0 253.005 39.534 Q 252.061 39.866 251.077 40.453 A 14.496 14.496 0 0 0 250.3 40.95 A 23.1 23.1 0 0 0 247.326 43.395 A 30.237 30.237 0 0 0 245.1 45.8 Q 242.6 48.8 240.6 52.4 A 34.613 34.613 0 0 0 238.323 57.35 A 30.043 30.043 0 0 0 237.6 59.6 Q 239.903 58.833 242.715 57.446 Z M 343.804 93.87 A 42.478 42.478 0 0 0 344.75 92.85 A 22.257 22.257 0 0 0 346.782 90.158 Q 349.425 86.116 352.3 79 A 161.342 161.342 0 0 0 347.409 81.731 A 133.705 133.705 0 0 0 344.7 83.35 A 27.717 27.717 0 0 0 341.816 85.37 Q 340.248 86.633 339.1 88 Q 337 90.5 337 93.8 Q 337 94.366 337.3 95.081 A 6.733 6.733 0 0 0 337.6 95.7 A 2.015 2.015 0 0 0 339.067 96.744 A 3.356 3.356 0 0 0 339.7 96.8 Q 340.992 96.8 343.804 93.87 Z M 196.3 96.8 A 2.973 2.973 0 0 0 197.521 96.496 Q 199.257 95.705 201.75 92.85 Q 204.607 89.579 207.841 82.435 A 113.16 113.16 0 0 0 209.2 79.3 A 94.634 94.634 0 0 0 203.565 82.352 A 82.001 82.001 0 0 0 201.75 83.45 A 32.225 32.225 0 0 0 198.79 85.521 Q 197.364 86.65 196.247 87.841 A 19.642 19.642 0 0 0 196.1 88 A 8.876 8.876 0 0 0 194.606 90.175 A 7.18 7.18 0 0 0 193.9 93.3 A 5.949 5.949 0 0 0 193.983 94.323 Q 194.141 95.227 194.6 95.85 A 2.748 2.748 0 0 0 195.092 96.371 A 1.885 1.885 0 0 0 196.3 96.8 Z" vector-effect="non-scaling-stroke"/></g></svg>