<?xml version="1.0" standalone="no"?>
<!DOCTYPE svg PUBLIC "-//W3C//DTD SVG 20010904//EN"
 "http://www.w3.org/TR/2001/REC-SVG-20010904/DTD/svg10.dtd">
<svg version="1.0" xmlns="http://www.w3.org/2000/svg"
 width="192" height="71" viewBox="0 0 1920.000000 715.000000"
 preserveAspectRatio="xMidYMid meet">

<g transform="translate(0.000000,715.000000) scale(0.100000,-0.100000)"
fill="#000000" stroke="none">
<path d="M18016 6490 c-31 -28 -87 -114 -189 -291 -31 -55 5 -45 -367 -94
-495 -64 -452 -57 -469 -87 -9 -15 -13 -29 -10 -32 2 -3 46 -11 97 -17 91 -13
92 -13 92 -41 0 -34 12 -36 37 -4 16 22 23 24 71 19 51 -5 52 -6 52 -39 0 -40
12 -43 34 -9 14 21 24 25 66 25 l50 0 0 -40 c0 -49 17 -52 48 -10 20 26 29 30
73 30 28 0 49 -3 47 -7 -1 -5 -29 -55 -60 -113 -31 -58 -78 -149 -103 -203
-34 -71 -52 -98 -68 -102 -12 -3 -67 -14 -121 -25 -55 -11 -100 -21 -101 -23
-5 -6 -25 -46 -25 -50 0 -2 46 -7 101 -10 56 -4 104 -8 106 -11 6 -6 -18 -52
-88 -168 -33 -54 -59 -100 -59 -103 0 -3 6 -5 13 -5 9 0 86 121 159 252 10 17
37 -10 87 -85 67 -104 63 -99 88 -78 l22 18 -40 123 -39 122 33 47 c19 25 71
107 117 181 46 74 88 141 95 148 9 10 16 4 34 -28 22 -40 22 -42 6 -76 -22
-46 -12 -55 23 -21 l28 27 37 -49 c34 -47 36 -51 22 -77 -18 -36 -9 -49 20
-30 23 15 25 14 54 -23 27 -34 30 -43 21 -66 -13 -34 -8 -40 19 -26 18 10 26
3 82 -71 l62 -81 24 29 c12 16 23 34 23 41 0 6 -25 67 -56 135 -81 177 -209
485 -229 549 l-17 55 75 139 c80 150 101 203 95 250 -4 41 -29 43 -72 5z"/>
<path d="M17129 4943 c-18 -27 -59 -83 -91 -125 -56 -74 -68 -98 -49 -98 9 0
52 55 137 175 67 95 68 95 50 95 -8 0 -30 -21 -47 -47z"/>
<path d="M16807 4524 c-53 -64 -97 -123 -97 -132 0 -12 2 -12 17 -1 25 21 193
229 193 240 0 22 -21 2 -113 -107z"/>
<path d="M8242 4396 c-29 -8 -55 -16 -59 -20 -16 -15 11 -15 98 0 61 10 116
14 157 10 52 -6 62 -4 62 9 0 12 -17 15 -102 14 -57 0 -127 -6 -156 -13z"/>
<path d="M8610 4368 c0 -8 23 -21 53 -31 30 -9 91 -40 137 -67 84 -51 100 -57
100 -41 0 13 -84 64 -170 105 -98 45 -120 51 -120 34z"/>
<path d="M7990 4294 c-90 -55 -180 -130 -180 -150 0 -22 8 -18 70 39 49 44
157 117 194 131 8 2 8 7 1 15 -8 8 -31 -2 -85 -35z"/>
<path d="M16517 4191 c-114 -127 -133 -178 -25 -64 140 147 168 183 140 183
-4 0 -56 -54 -115 -119z"/>
<path d="M6595 4255 c-81 -18 -201 -73 -188 -86 6 -6 31 1 74 20 61 27 140 48
203 54 16 1 31 8 34 15 5 16 -43 15 -123 -3z"/>
<path d="M6820 4251 c0 -4 30 -16 68 -25 37 -9 105 -34 151 -56 81 -39 101
-44 86 -20 -26 42 -305 135 -305 101z"/>
<path d="M8977 4154 c-3 -4 20 -36 52 -73 32 -36 77 -94 100 -129 44 -66 78
-78 39 -14 -56 93 -177 230 -191 216z"/>
<path d="M6224 4038 c-86 -90 -139 -164 -123 -174 7 -4 16 1 21 10 20 36 129
163 162 189 20 15 36 32 36 37 0 25 -32 4 -96 -62z"/>
<path d="M7216 4071 c-3 -5 15 -27 41 -49 27 -22 75 -72 108 -111 33 -39 66
-71 73 -71 22 0 -4 35 -105 140 -95 99 -107 108 -117 91z"/>
<path d="M7713 4033 c-34 -47 -69 -124 -92 -197 -25 -81 -24 -76 -8 -76 7 0
19 22 26 49 14 57 75 187 99 214 11 12 12 21 5 28 -7 7 -17 2 -30 -18z"/>
<path d="M16220 3880 c-103 -108 -120 -130 -103 -130 10 0 233 222 233 233 0
24 -37 -6 -130 -103z"/>
<path d="M9220 3796 c0 -2 15 -51 34 -108 19 -57 38 -124 41 -150 5 -31 12
-48 21 -48 16 0 13 24 -19 145 -24 96 -52 165 -67 165 -5 0 -10 -2 -10 -4z"/>
<path d="M6008 3703 c-48 -124 -73 -243 -52 -243 7 0 16 16 19 38 3 20 20 82
38 137 18 55 35 106 38 114 2 7 -1 15 -6 17 -6 2 -22 -26 -37 -63z"/>
<path d="M7500 3740 c0 -6 11 -27 23 -48 13 -20 43 -74 67 -120 24 -45 44 -81
45 -80 1 2 -3 38 -9 81 -8 65 -13 76 -27 72 -12 -4 -25 9 -48 50 -29 50 -51
70 -51 45z"/>
<path d="M15901 3571 c-70 -67 -109 -111 -102 -115 11 -7 241 199 241 216 0
23 -35 -3 -139 -101z"/>
<path d="M1104 3471 c-23 -10 -54 -36 -70 -56 -73 -97 -25 -310 104 -455 35
-40 258 -220 282 -228 6 -2 10 2 9 10 0 7 -49 51 -110 97 -60 46 -109 86 -109
90 0 4 19 31 41 61 56 74 88 145 106 238 19 95 8 145 -42 201 -55 60 -136 76
-211 42z m152 -82 c36 -34 48 -80 31 -121 -23 -53 -52 -73 -109 -73 -43 0 -53
4 -79 33 -49 55 -35 141 30 178 35 19 97 11 127 -17z"/>
<path d="M15588 3284 c-107 -96 -132 -124 -110 -124 17 0 242 204 242 219 0
21 -16 9 -132 -95z"/>
<path d="M9310 3312 c0 -38 -7 -110 -16 -161 -15 -88 -13 -122 5 -92 11 17 28
132 37 239 6 72 5 82 -10 82 -13 0 -16 -12 -16 -68z"/>
<path d="M5944 3253 c7 -107 28 -210 47 -227 13 -12 12 -11 -16 164 -8 52 -15
110 -15 128 0 17 -5 32 -12 32 -8 0 -9 -27 -4 -97z"/>
<path d="M15260 3001 c-108 -93 -134 -121 -113 -121 12 0 240 193 243 205 4
25 -24 7 -130 -84z"/>
<path d="M9226 2898 c-10 -29 -38 -93 -62 -141 -24 -48 -44 -92 -44 -97 0 -41
60 57 113 185 37 89 40 105 25 105 -7 0 -22 -24 -32 -52z"/>
<path d="M6020 2911 c0 -19 136 -275 148 -279 19 -6 14 11 -26 84 -20 38 -51
99 -67 136 -17 37 -36 68 -42 68 -7 0 -13 -4 -13 -9z"/>
<path d="M14920 2725 c-63 -52 -117 -102 -118 -111 -5 -22 3 -17 140 94 100
80 131 115 100 111 -4 0 -59 -43 -122 -94z"/>
<path d="M1516 2671 c-4 -5 54 -50 128 -100 82 -56 137 -87 141 -80 4 6 5 12
4 13 -25 18 -261 176 -264 176 -2 0 -6 -4 -9 -9z"/>
<path d="M8982 2468 c-38 -51 -82 -104 -96 -117 -24 -23 -36 -57 -18 -49 25
10 202 228 202 249 0 23 -23 2 -88 -83z"/>
<path d="M6235 2540 c-4 -6 23 -47 59 -93 101 -127 143 -171 150 -158 4 6 -22
44 -58 86 -36 41 -82 97 -102 125 -39 54 -40 55 -49 40z"/>
<path d="M14573 2457 c-105 -79 -143 -117 -117 -117 16 0 263 193 258 201 -3
5 -8 9 -12 8 -4 0 -62 -42 -129 -92z"/>
<path d="M1876 2431 c-9 -13 270 -179 281 -167 4 4 2 11 -3 16 -9 9 -264 160
-270 160 -2 0 -5 -4 -8 -9z"/>
<path d="M14305 2255 c-153 -107 -199 -141 -203 -154 -8 -23 22 -7 149 85 66
47 117 90 114 95 -8 12 -3 14 -60 -26z"/>
<path d="M8698 2177 c-41 -34 -98 -78 -126 -97 -52 -35 -64 -50 -39 -50 16 0
152 99 216 157 73 65 30 57 -51 -10z"/>
<path d="M2250 2210 c0 -10 271 -150 290 -150 32 0 -6 26 -131 89 -143 72
-159 79 -159 61z"/>
<path d="M6520 2205 c0 -16 219 -215 238 -215 22 0 13 16 -29 49 -22 18 -76
66 -119 107 -44 41 -82 74 -85 74 -3 0 -5 -7 -5 -15z"/>
<path d="M13862 1949 c-73 -49 -130 -94 -126 -100 3 -6 16 -3 34 8 157 102
240 160 240 171 0 6 -3 12 -7 11 -5 0 -68 -41 -141 -90z"/>
<path d="M2644 2019 c-8 -13 -21 -6 145 -77 96 -42 148 -59 155 -52 6 6 -3 15
-27 25 -47 19 -83 34 -184 78 -51 22 -85 32 -89 26z"/>
<path d="M8278 1907 c-133 -70 -157 -87 -120 -87 23 0 275 134 280 149 7 21
-23 9 -160 -62z"/>
<path d="M6846 1922 c-4 -7 61 -59 188 -147 44 -31 71 -44 77 -38 7 7 -6 21
-38 41 -26 17 -84 58 -128 91 -82 62 -90 67 -99 53z"/>
<path d="M3042 1849 c2 -7 29 -23 59 -34 186 -72 277 -97 243 -66 -8 7 -234
92 -288 108 -13 4 -17 2 -14 -8z"/>
<path d="M13503 1717 c-73 -45 -133 -88 -133 -94 0 -21 10 -16 120 53 58 37
117 74 132 83 25 14 39 42 21 40 -5 0 -67 -37 -140 -82z"/>
<path d="M8018 1785 c-3 -3 -66 -28 -139 -55 -73 -26 -135 -54 -138 -61 -5
-16 23 -9 177 49 70 26 126 51 125 57 -2 12 -17 18 -25 10z"/>
<path d="M3450 1701 c0 -14 307 -107 318 -96 12 12 -17 24 -155 64 -151 44
-163 46 -163 32z"/>
<path d="M7200 1671 c0 -5 32 -28 71 -51 49 -30 67 -46 60 -53 -20 -20 -11
-29 19 -22 23 5 42 0 77 -19 53 -30 85 -20 34 10 -17 10 -31 21 -31 24 0 4 40
17 88 29 95 24 121 36 109 47 -4 4 -60 -7 -125 -25 l-119 -32 -80 50 c-78 50
-103 60 -103 42z"/>
<path d="M3870 1580 c0 -10 25 -18 193 -56 105 -24 142 -26 125 -8 -7 6 -283
74 -304 74 -8 0 -14 -4 -14 -10z"/>
<path d="M13130 1491 c-74 -43 -136 -84 -138 -91 -7 -19 16 -9 160 73 70 40
128 78 128 85 0 6 -3 12 -7 12 -5 0 -69 -36 -143 -79z"/>
<path d="M7052 1504 c-152 -32 -171 -38 -159 -51 7 -6 304 51 314 61 21 20
-23 18 -155 -10z"/>
<path d="M4300 1488 c0 -11 33 -21 128 -37 70 -12 142 -24 160 -28 23 -4 32
-2 32 9 0 10 -40 20 -147 37 -82 13 -154 26 -160 28 -7 3 -13 -1 -13 -9z"/>
<path d="M7580 1451 c0 -5 48 -34 108 -64 138 -71 180 -88 187 -77 6 9 -263
150 -285 150 -5 0 -10 -4 -10 -9z"/>
<path d="M6635 1434 c-49 -7 -109 -16 -132 -19 -46 -7 -59 -25 -18 -25 26 0
231 27 278 36 15 3 27 10 27 15 0 12 -42 10 -155 -7z"/>
<path d="M4730 1417 c0 -11 26 -17 108 -26 59 -7 131 -15 161 -18 43 -5 53 -3
49 8 -3 10 -38 17 -121 25 -63 7 -134 15 -156 19 -32 5 -41 4 -41 -8z"/>
<path d="M6250 1390 c-41 -4 -108 -8 -147 -9 -60 -1 -73 -4 -73 -17 0 -14 12
-15 98 -9 177 13 227 20 225 30 -3 13 -13 13 -103 5z"/>
<path d="M5160 1371 c0 -9 93 -19 230 -23 115 -4 117 15 3 23 -133 10 -233 10
-233 0z"/>
<path d="M5597 1364 c-18 -19 19 -24 164 -24 135 0 159 2 159 15 0 13 -24 15
-158 15 -87 0 -162 -3 -165 -6z"/>
<path d="M12745 1280 c-71 -38 -131 -74 -134 -81 -6 -20 29 -6 163 65 113 60
150 88 114 85 -7 0 -71 -32 -143 -69z"/>
<path d="M7970 1261 c0 -9 44 -29 203 -91 66 -26 97 -34 97 -26 0 7 -62 38
-137 70 -138 56 -163 63 -163 47z"/>
<path d="M12348 1088 c-76 -33 -138 -65 -138 -70 0 -6 12 -7 27 -3 44 11 273
117 273 126 0 16 -23 8 -162 -53z"/>
<path d="M8385 1094 c25 -19 287 -104 298 -97 16 10 -9 21 -147 67 -147 49
-186 57 -151 30z"/>
<path d="M8792 968 c3 -7 58 -27 124 -44 149 -41 194 -49 194 -35 0 6 -17 15
-37 20 -21 5 -91 23 -155 40 -134 35 -131 35 -126 19z"/>
<path d="M11938 931 c-87 -29 -138 -51 -138 -60 0 -8 6 -11 15 -7 9 3 41 13
73 22 100 29 222 76 222 85 0 15 -29 8 -172 -40z"/>
<path d="M9210 860 c0 -5 2 -10 4 -10 2 0 57 -11 122 -24 196 -39 194 -39 194
-21 0 8 -9 15 -19 15 -11 0 -75 11 -143 25 -136 28 -158 30 -158 15z"/>
<path d="M11565 829 c-66 -15 -134 -28 -152 -28 -30 -1 -51 -16 -39 -28 10
-11 312 52 321 67 11 18 -13 16 -130 -11z"/>
<path d="M9640 783 c0 -7 1 -13 3 -13 1 0 72 -9 157 -20 85 -11 156 -20 158
-20 1 0 2 6 2 13 0 9 -47 19 -160 33 -127 16 -160 17 -160 7z"/>
<path d="M11135 760 c-33 -4 -90 -11 -127 -15 -38 -3 -68 -11 -68 -16 0 -13
68 -11 205 6 66 8 121 15 123 15 1 0 2 5 2 10 0 11 -46 11 -135 0z"/>
<path d="M10074 741 c-14 -14 7 -20 94 -25 53 -3 127 -8 165 -10 50 -4 67 -2
67 8 0 10 -41 15 -161 22 -88 5 -163 7 -165 5z"/>
<path d="M10510 715 c0 -12 18 -15 99 -15 119 0 221 10 221 21 0 5 -72 9 -160
9 -136 0 -160 -2 -160 -15z"/>
</g>
</svg>
